# xmcd CD database file
#
# Track frame offsets:
#	150
#	19202
#	37337
#	57820
#	73757
#	91985
#	116705
#	132257
#	155232
#	170067
#	188390
#	209205
#	220177
#
# Disc length: 3177 seconds
#
# Revision: 0
# Processed by: cddbd v1.4PL0 Copyright (c) Steve Scherf et al.
# Submitted via: CDex 1.50beta10
#
DISCID=ca0c670d
DTITLE=Dallas Wayne - Screamin' Down the Highway
DYEAR=1900
DGENRE=Country
TTITLE0=Stone By Stone
TTITLE1=She Lit the Torch
TTITLE2=Downhill Slide
TTITLE3=Motorman
TTITLE4=Something Inside
TTITLE5=Sunnydale Acres
TTITLE6=Screamin' Down the Highway
TTITLE7=Susan Fell Again
TTITLE8=Heart Trouble
TTITLE9=I'll Take the Fifth
TTITLE10=I'm Going Home
TTITLE11=She Took a Lot of Pills And Died
TTITLE12=How the Better Half Lives
EXTD=
EXTT0=
EXTT1=
EXTT2=
EXTT3=
EXTT4=
EXTT5=
EXTT6=
EXTT7=
EXTT8=
EXTT9=
EXTT10=
EXTT11=
EXTT12=
PLAYORDER=
